<svg xmlns="http://www.w3.org/2000/svg" viewBox="0 0 418.86 469.91"><defs><style>.cls-1{fill:#e6ecff;}.cls-2{fill:#ea2a21;}.cls-3{fill:#d11313;}.cls-4{fill:#b7130b;}.cls-5{fill:#c7d1ea;}.cls-6{fill:#f7931e;}.cls-7{fill:#db7712;}.cls-8{fill:#ffa245;}.cls-9{fill:#a55a0f;}.cls-10{fill:#363636;}.cls-11{fill:#0e1928;}.cls-12{fill:#f2f2f2;}.cls-13{fill:#141718;}.cls-14{fill:#555759;}.cls-15{fill:#4150d8;}.cls-16{fill:#31409b;}.cls-17{fill:#5065e2;}.cls-18{fill:#3145bc;}.cls-19{fill:#222223;}.cls-20{fill:#fc3838;}.cls-21{fill:#e5e5e5;}.cls-22{fill:#fff;}.cls-23{fill:#c9d5f4;}.cls-24{fill:#8da1ce;}</style></defs><title>pi</title><g id="Calque_2" data-name="Calque 2"><g id="Ñëîé_1" data-name="Ñëîé 1"><g id="_1" data-name="1"><circle class="cls-1" cx="209.43" cy="209.43" r="209.43"/><path class="cls-2" d="M116.93,311.18c8.64-29,24.53-55.25,49.06-61.27l-19-13.42c-1.09.87-27.95-1.7-46.38,21.91a69.59,69.59,0,0,0-9.76,17.45c-11.92,30.46-40.11,31.83-36,49.68a30.45,30.45,0,0,0,4,9C77.58,364.81,109.31,336.7,116.93,311.18Z"/><path class="cls-3" d="M116.93,311.18c8.64-29,24.53-55.25,49.06-61.27l-19-13.42c-1.09.87-27.95-1.7-46.38,21.91,0,0,16.9-1.34,15.09,19.15s-9.57,48.35-27.95,58S55.29,325.83,55,325.42a30.78,30.78,0,0,0,4,9C77.58,364.81,109.31,336.7,116.93,311.18Z"/><path class="cls-4" d="M98,341.43c-5.06,4-10.47,6.69-16.13,7.39-6.67.82-16.15-.8-24-13.64-10-16.32-1.9-22.68,8.38-31,7.94-6.25,17.79-14,23.53-29,9.79-25,28.25-38.44,55-40,.76-.15,1.5-.07,1.88-.14a1.8,1.8,0,0,1,1.36,0l19,13.42a1.26,1.26,0,0,1-.39,2.31c-28.34,6.8-42.41,40.73-48.21,60.38C115,322.24,107.4,334,98,341.43Zm12.94-91.36c-8.07,6.36-14.2,15.19-18.5,26.33C86.33,292.05,76.21,300,68,306.5c-10.4,8.19-16.56,13-7.71,27.36,5.72,9.24,12.79,13.42,21.37,12.21,15.25-2,29.53-19.94,34.07-35.27,5.91-19.52,19.54-52.88,47.35-61.48L147,237.85a11.43,11.43,0,0,1-1.87.15C131.33,238.85,120.07,242.85,110.9,250.07Z"/><ellipse class="cls-5" cx="209.43" cy="450.06" rx="140.21" ry="19.85"/><path class="cls-6" d="M108.24,456.16c12.36,6.79,44.93,5,73.5-10.28l-11.15-3.83-28.39-9.76-9.06-3.13S104.58,434,103,448.32C102.66,451.63,104.58,454.24,108.24,456.16Z"/><path class="cls-7" d="M108.24,456.16c12.36,6.79,44.93,5,73.5-10.28l-11.15-3.83-10.45,4.35S134.89,459.12,108.24,456.16Z"/><path class="cls-8" d="M108.24,456.16c1.22-17.6,33.61-19.16,33.61-19.16l.35-4.88L133.14,429s-28.56,4.88-30.13,19.16C102.66,451.63,104.58,454.24,108.24,456.16Z"/><path class="cls-9" d="M128.44,461.38c-9.58,0-17.59-1.74-22.29-4.88-3.31-2.26-4.88-5.05-4.53-8.36,1.57-15.15,30-20.2,31.18-20.37h.69l48.6,16.72a1.3,1.3,0,0,1,.87,1.21,1.6,1.6,0,0,1-.7,1.4C164.15,457,144.12,461.38,128.44,461.38Zm4.7-30.83c-3.13.52-27.34,5.58-28.73,17.94-.18,2.27.87,4.18,3.3,5.75,9.93,6.79,41.28,6.62,70.72-8Z"/><path class="cls-10" d="M132.45,428.11c26.65,32.57,59.39,15.85,69,9.58a24.43,24.43,0,0,0,2.79-1.91h0l-74-132.2h0C130,304.45,98.83,386.84,132.45,428.11Z"/><path class="cls-6" d="M244.44,443.61c29.61,16.38,63.4,17.95,74.89,10.46,2.79-1.75,4.18-4.18,3.83-7-1.22-14.28-29.78-19.68-29.78-19.68l-5.4,1.74-29.61,9.75Z"/><path class="cls-8" d="M287.81,429.33l.17,1.75s30.31,7.83,31.18,23c2.79-1.75,4.18-4.18,3.83-7-1.22-14.28-29.78-19.68-29.78-19.68Z"/><path class="cls-7" d="M258.37,438.91l-13.93,4.53c29.61,16.37,63.4,17.94,74.89,10.45,0,0-28.56.87-52.08-11.49C264.47,441.18,261.51,440,258.37,438.91Z"/><path class="cls-9" d="M298.78,459.81c-15.85,0-36.4-4.7-55-15a1.4,1.4,0,0,1-.69-1.39,1.31,1.31,0,0,1,.87-1.22l48.94-16h.7c1.21.17,29.61,5.75,31,20.9.35,3.31-1.22,6.09-4.53,8.18C315.33,458.25,307.84,459.81,298.78,459.81Zm-50.86-16c29.26,15.15,60.44,15.67,70.54,9.06,2.44-1.57,3.48-3.49,3.31-5.75-1-12.37-25.25-17.77-28.39-18.29Z"/><path class="cls-10" d="M226.15,436a4.18,4.18,0,0,0,.7.52,43.29,43.29,0,0,0,13.41,6.27c12,3.14,30.48,3,52.25-15.5,41.28-35.18,26.82-100,26.82-100h0L315,332.32Z"/><path class="cls-11" d="M146.21,351.13c2.26,47.37,37.44,71.24,79.24,69.15,41.81-1.92,74.38-29.79,72.29-76.46-1.57-33.1-17.07-61.84-21.95-83.08-2.44-10.45-10.8-38.15-14.28-42.33-11-13.76-25.95-7-39.19-8.88a31.33,31.33,0,0,0-7-.35,44.35,44.35,0,0,0-7,1c-13.07,3.13-28.74-2.27-38.32,12.36-3,4.53-8.89,32.92-10.1,43.55C157,287.91,144.46,317.17,146.21,351.13Z"/><path class="cls-10" d="M123.39,346.78c2.61,53.29,35.88,83.42,80.82,88.82h0a129.52,129.52,0,0,0,21.94.7h.7c38.66-2.09,70.36-20.55,85.17-52.08h0c6.27-13.58,9.4-29.61,8.53-47.72a61.72,61.72,0,0,0-1.22-9.58c-2.44-12.36-8.18-24.56-13.41-36.4a188.18,188.18,0,0,1-7.31-18.29c-5.75-18.29-11.85-35.7-9.06-46,3.48-13.58-10.45-47-15-52.42-14.63-17.77-34.49-8.89-52.08-11.5a42.4,42.4,0,0,0-9.4-.52,40.53,40.53,0,0,0-9.23,1.39c-17.42,4.18-38.15-3-51.21,16-4,5.93-17.24,42.85-15.33,56.78,1.4,10.11,3.66,24,.53,39.89-1.74,8.53-4.71,17.76-7.49,27.52h0l-2.61,9.4V313a163.73,163.73,0,0,0-3.66,18.46h0A91.29,91.29,0,0,0,123.39,346.78Z"/><path class="cls-12" d="M146.21,351.13c2.26,47.37,37.44,71.24,79.24,69.15,41.81-1.92,74.38-29.79,72.29-76.46-1.57-33.1-30.66-91.44-34.84-105.9-3-10.28,2.09-15.33-1.22-19.51-11-13.76-26-7-39.19-8.88a31.27,31.27,0,0,0-7-.35,44.47,44.47,0,0,0-7,1c-13.06,3.13-28.74-2.27-38.32,12.36-3,4.53-5.57,13.94-7.84,24.39C157.7,266.14,144.46,317.17,146.21,351.13Z"/><path class="cls-10" d="M217.62,337a6.22,6.22,0,0,1-4.18-1.57c-3.14-2.61-4.53-8.53-5.05-13.23-2.09,5.22-5.93,11.32-11.15,11.67a6,6,0,0,1-5.75-3.66c-3-6.1-1.22-19.68,5.23-27a1.36,1.36,0,0,1,2.09,1.74c-5.58,6.45-7.32,18.64-4.71,24,1.05,2.26,2.62,2.26,3.14,2.26,5.75-.34,9.93-12,11-16.37a1.51,1.51,0,0,1,1.57-1,1.47,1.47,0,0,1,1.22,1.39c0,4,.69,15,4.53,18.29a3.9,3.9,0,0,0,3.3.87c9.24-1.92,6.62-21.42,6.62-21.6a1.34,1.34,0,0,1,2.62-.52c0,.17,3.65,15.33,10.27,19.33a6,6,0,0,0,4.53.7,7.74,7.74,0,0,0,5.22-4.35c3.66-8.54-4.87-25.26-4.87-25.43a1.41,1.41,0,1,1,2.44-1.4c.34.7,9.23,17.94,5.05,27.87a10,10,0,0,1-7,5.92,8.08,8.08,0,0,1-6.62-.87c-3.83-2.26-6.62-7.31-8.53-11.84-.52,6.27-2.44,13.76-9.06,15A8.24,8.24,0,0,0,217.62,337Z"/><path class="cls-13" d="M220.58,421.84c-19.51,0-37.45-5.74-50.51-16.54-15.5-12.54-24.21-31.35-25.26-54.17-1.57-32.05,11.5-86.91,15.5-103.11a1.35,1.35,0,0,1,1.57-1,1.45,1.45,0,0,1,1.05,1.74c-4,16-16.9,70.54-15.5,102.24,1.91,41.8,30.3,68.1,72.62,68.1a47.54,47.54,0,0,0,5.06-.18c44.41-2.09,73-32.22,70.88-75.06-1.22-26.65-22.12-76.12-31-97.37-2.26-5.22-3.66-8.53-4.18-10.1a1.38,1.38,0,1,1,2.61-.87c.53,1.39,1.92,5.05,4,9.93,8.88,21.25,30,71.24,31.18,98.23,2.09,44.42-27.35,75.59-73.5,77.86A19.65,19.65,0,0,1,220.58,421.84Z"/><path class="cls-14" d="M240.26,442.57c12,3.13,30.48,3,52.25-15.5,41.28-35.18,26.82-100,26.82-100h0c-2.44-12.37-8.18-24.56-13.41-36.41A230.63,230.63,0,0,1,315,332.15c1.91,16.72,1.91,35.18-3,52.25h0C298.26,432.29,264.29,445.18,240.26,442.57Z"/><path class="cls-14" d="M132.45,428.11c26.65,32.57,59.39,15.85,69,9.58h0s-34.14,15.68-61.48-8.71c-20.9-18.63-21.08-63.22-15.85-97.36h0c1-6.62,2.26-12.89,3.66-18.46V313q1.31-5.24,2.61-9.41h0C130,304.45,98.83,386.84,132.45,428.11Z"/><path class="cls-13" d="M170.42,448.49c-12.2,0-26.13-4.53-39-19.51-28.91-33.61-14.63-83.6-3.13-123.83,4.53-15.85,8.71-30.83,9.75-42.67a1.31,1.31,0,0,1,2.61.17c-1,12.19-5.4,27.17-9.92,43.2-11.33,39.53-25.26,89,2.61,121.39,31.35,36.58,68.45,8.71,70,7.49a1.13,1.13,0,0,1,1-.17c12.71,2.44,21.08.17,21.25.17a1.16,1.16,0,0,1,1.22.35c1.22,1,29.26,24,64.62-8.71,31.87-29.43,31.69-69.49,26.12-98.06-6.27-31-20.2-55.38-20.2-55.56a1.4,1.4,0,0,1,2.44-1.39,204.42,204.42,0,0,1,20.55,56.43c8.36,41.8-.87,76.63-26.82,100.5-34.49,31.87-63.4,12.54-67.76,9.23-2.26.52-10.1,1.74-21.07-.18C201.77,439.09,187.83,448.49,170.42,448.49Z"/><path class="cls-9" d="M323.16,449.89a1.52,1.52,0,0,1-1-.53c0-.17-4.36-4.87-13.41-6.61a1.34,1.34,0,0,1,.52-2.62c10.1,1.74,14.81,7.32,15,7.49a1.39,1.39,0,0,1-.17,1.92A1.13,1.13,0,0,1,323.16,449.89Z"/><path class="cls-9" d="M316.37,456.85a1.29,1.29,0,0,1-.87-.35,35.24,35.24,0,0,0-12-6.61,1.38,1.38,0,0,1,.87-2.62,39.4,39.4,0,0,1,13.07,7.32,1.38,1.38,0,0,1,.17,1.91A2.47,2.47,0,0,1,316.37,456.85Z"/><path class="cls-9" d="M103.36,452.15a1.29,1.29,0,0,1-.87-.35,1.37,1.37,0,0,1-.17-1.91c.34-.35,6.61-7.32,16.19-8a1.31,1.31,0,0,1,.18,2.62c-8.54.52-14.28,7-14.46,7.14A1,1,0,0,1,103.36,452.15Z"/><path class="cls-9" d="M112.31,458.43a1.55,1.55,0,0,1-1-.52,1.39,1.39,0,0,1,.17-1.92c.18-.17,5.58-4.7,17.07-8.36a1.38,1.38,0,1,1,.87,2.61c-10.8,3.49-16,7.84-16,7.84A2.56,2.56,0,0,1,112.31,458.43Z"/><path class="cls-15" d="M164.49,355.66V332.49a16.91,16.91,0,0,1,16.9-16.89h31.18a16.91,16.91,0,0,1,16.89,16.89v23.17a16.91,16.91,0,0,1-16.89,16.89H181.39A17,17,0,0,1,164.49,355.66Zm16.9-31.18a7.81,7.81,0,0,0-7.84,7.84v23.17a7.8,7.8,0,0,0,7.84,7.83h31.18a7.8,7.8,0,0,0,7.83-7.83V332.32a7.81,7.81,0,0,0-7.83-7.84Z"/><path class="cls-16" d="M212.57,374.05H181.39A18.42,18.42,0,0,1,163,355.66V332.49a18.42,18.42,0,0,1,18.4-18.39h31.18A18.41,18.41,0,0,1,231,332.49v23.17A18.41,18.41,0,0,1,212.57,374.05ZM181.39,317.1A15.42,15.42,0,0,0,166,332.5v23.16a15.6,15.6,0,0,0,15.4,15.39h31.17A15.41,15.41,0,0,0,228,355.66V332.5a15.42,15.42,0,0,0-15.4-15.4Zm31.18,47.72H181.39a9.35,9.35,0,0,1-9.34-9.34V332.32a9.35,9.35,0,0,1,9.34-9.34h31.18a9.35,9.35,0,0,1,9.33,9.34v23.16A9.35,9.35,0,0,1,212.57,364.82ZM181.39,326a6.27,6.27,0,0,0-6.34,6.34v23.16a6.27,6.27,0,0,0,6.34,6.34h31.17a6.27,6.27,0,0,0,6.34-6.34V332.32a6.27,6.27,0,0,0-6.34-6.34Z"/><path class="cls-15" d="M185.92,308.63v70.72a7.36,7.36,0,0,0,7.31,7.31h61.31a7.36,7.36,0,0,0,7.32-7.31V308.63a7.36,7.36,0,0,0-7.32-7.31H193.23A7.36,7.36,0,0,0,185.92,308.63Z"/><path class="cls-17" d="M247.23,301.32v85.34h7.48a7.36,7.36,0,0,0,7.32-7.31V308.63a7.36,7.36,0,0,0-7.32-7.31Z"/><path class="cls-18" d="M185.92,308.63v70.72a7.36,7.36,0,0,0,7.31,7.31h5.05V301.32h-5.05A7.36,7.36,0,0,0,185.92,308.63Z"/><path class="cls-16" d="M184.35,379.35V308.63a8.92,8.92,0,0,1,8.88-8.88h61.31a8.92,8.92,0,0,1,8.88,8.88v70.72a8.92,8.92,0,0,1-8.88,8.88H193.23A8.92,8.92,0,0,1,184.35,379.35Zm9.06-76.46a5.79,5.79,0,0,0-5.75,5.74v70.72a5.79,5.79,0,0,0,5.75,5.74h61.3a5.79,5.79,0,0,0,5.75-5.74V308.63a5.79,5.79,0,0,0-5.75-5.74Z"/><path class="cls-10" d="M104.93,367.5c37.1,23.86,70.19-3.66,70.19-3.66L162.23,325h0c-1.22.18-20.9,1.75-22.29-6.79-.87-4.7,1.22-15.67,4-27.52,4.53-19.5,11.32-41.45,11.32-41.45L123.39,240C88,301.67,80.89,352,104.93,367.5Z"/><path class="cls-10" d="M160.49,350.61c2.79,15,14.63,13.23,14.63,13.23a14.3,14.3,0,0,0,1.39-2.09c7.32-11.14,6.1-25.25,3.66-34.66-2.61-10.1-10.1-10.79-10.1-10.79a8.18,8.18,0,0,0-3.14,1.39C160.84,322.57,158.22,337.72,160.49,350.61Z"/><path class="cls-19" d="M135.23,318.56c1.22,16.89,25.08,14.63,25.08,14.63l1.92-8.19c-1.22.18-20.9,1.75-22.29-6.79-.87-4.7,1.15-19.9,3.94-31.74C143.88,286.64,135.13,305.4,135.23,318.56Z"/><path class="cls-10" d="M245.83,348.17c7.32,7.84,15.5,17.42,28,23a54.79,54.79,0,0,0,16.38,4.35c51.9,5.93,83.95-55.73,27.69-136.2A265.47,265.47,0,0,0,299.48,216l-27.87,16s29.44,70.71,12,84.3c-5.05,3.83-14.46,4.87-23.69,5.22C231,322.91,236.08,337.72,245.83,348.17Z"/><path class="cls-19" d="M273.87,371.16a54.79,54.79,0,0,0,16.38,4.35c51.9,5.93,83.95-55.73,27.69-136.2l-1.57,9.23s29.61,38,24,82.56C335,375.86,273.87,371.16,273.87,371.16Z"/><path class="cls-14" d="M176.69,361.75c7.31-11.14,6.09-25.25,3.65-34.66-2.61-10.1-10.1-10.79-10.1-10.79a8.14,8.14,0,0,0-3.13,1.39C166.93,317.69,183.13,326.92,176.69,361.75Z"/><path class="cls-13" d="M297.21,377.26c-2.26,0-4.53-.18-7-.35h0c-21.95-2.44-34-15.33-43.55-25.78l-1.91-1.91c-6.8-7.15-9.41-14.29-7.32-19.51,2.27-5.75,9.93-8.88,22.47-9.41,8.71-.34,18.11-1.22,23-5.05,16.55-12.89-12-82-12.37-82.73a1.35,1.35,0,0,1,.53-1.74l27.86-16a1.4,1.4,0,0,1,1.75.34c51.72,58.7,55.21,108.51,41.27,135.33C332.92,367.68,316.55,377.26,297.21,377.26Zm-6.62-3.14c21.25,2.44,39.54-7,49-24.91,13.58-25.95,10.1-74.19-40.06-131.49l-26,14.8c3.83,9.41,28.21,71.41,11.14,84.82-5.39,4.18-15.32,5.23-24.55,5.57-11.33.53-18.29,3.14-20,7.67-2.44,5.92,4,13.58,6.79,16.54l1.91,2.09c9.76,10.63,20.9,22.65,41.8,24.91Z"/><path class="cls-13" d="M175.12,365.24c-.35,0-.52-.18-.87-.35-.53-.52-1.06-.8-.53-1.33,9.14-10.67,7.32-28.11,5.23-36.29-1.35-4.89-3.89-7.36-5.93-8.59a5,5,0,0,0-6.2.86c-4.23,4.5-6.73,15.47-5.46,26.89a1.41,1.41,0,0,1-2.79.35c-1.57-14.11,1.94-31.87,11.5-31.88,1.38,0,8.53.87,11.32,11.85,2.26,8.71,5.07,25.18-5,38.07C175.12,365.78,175.47,365.24,175.12,365.24Z"/><path class="cls-13" d="M137,378.48a60.55,60.55,0,0,1-32.75-9.76C91.87,361.06,87,344.51,90.3,321.17c3.31-23,14.28-51.2,31.7-81.51a1.51,1.51,0,0,1,1.56-.7l31.88,9.23a1.78,1.78,0,0,1,.87.7,2.28,2.28,0,0,1,.17,1.05c-.17.52-17.24,56.25-15.15,68.27,1,6.1,15.33,6.1,20.9,5.57.7,0,.68.84.85,1.54,0,.69.19,1.08-.5,1.25-2.27.17-22.12,1.74-23.69-7.84-1.92-11.67,12.19-59.39,14.81-68.27l-29.44-8.54C90,302,82.63,352,106,366.45c36.75,22.65,68.28-3.13,68.45-3.48a1.36,1.36,0,1,1,1.74,2.09C175.82,365.06,159.79,378.48,137,378.48Z"/><path class="cls-2" d="M111.55,262.48h0a21.92,21.92,0,0,1,2.61,1.74c98.23,61.66,200.82-5.92,206.57-21.08,1.74-4.52,1.56-9.92.52-15.5A72.28,72.28,0,0,0,316.54,213,94.59,94.59,0,0,0,311,202L111.89,235a51.35,51.35,0,0,0-3,9.23C106.15,257.43,111.55,262.48,111.55,262.48Z"/><path class="cls-3" d="M114.16,264.22c98.23,61.66,200.82-5.92,206.57-21.08,1.74-4.52,1.56-9.92.52-15.5,0,0-38.32,50.51-116.87,49.29C143.07,276.06,121,267.88,114.16,264.22Z"/><path class="cls-20" d="M108.93,244.36C125.48,255,152.65,266,194.63,266c82.21,0,121.74-52.77,121.74-52.77a96.2,96.2,0,0,0-5.57-11L111.9,235A70.72,70.72,0,0,0,108.93,244.36Z"/><path class="cls-4" d="M201.59,291.22c-27.86,0-59.39-7-90.91-27.52l-.18-.18c-.35-.35-8.36-8.36.18-28.91.17-.52.52-.7,1-.87L310.8,200.82a1.29,1.29,0,0,1,1.39.7c.7,1,15.85,26.47,9.93,42.32C319,252,293,271,259.24,282A193.67,193.67,0,0,1,201.59,291.22Zm-89.17-29.79c55.21,35.88,109.9,29.44,146,17.77,34.84-11.32,58.7-30.13,61.14-36.58,4.87-13.06-6.62-34.66-9.23-39L112.94,236.35C106,253.77,111.72,260.74,112.42,261.43Z"/><path class="cls-12" d="M84.38,184.8c5.39,33.26,29.6,53.47,61.3,62.18a160.87,160.87,0,0,0,16.38,3.48c18.11,2.79,38,2.26,57.82-.87a190.83,190.83,0,0,0,45.46-13.06c2.26-1.05,4.7-2.09,6.79-3.14l1.05-.52h0c36.75-18.12,61-48.25,54.51-87.78-3.83-23.17-17.41-45.29-36.57-62.7-2.09-1.75-4-3.66-6.27-5.23-27.17-21.95-63.4-34.66-98.06-29.09C150,54,118.17,80.12,99.88,112,86.81,135,80.54,161.11,84.38,184.8Z"/><path class="cls-21" d="M228.22,177.14s-12-62.53,23.19-85.7-39.54-14.8-39.54-14.8l-7.49,93Z"/><ellipse class="cls-22" cx="255.95" cy="153.27" rx="21.08" ry="25.26" transform="translate(-0.66 1.1) rotate(-0.25)"/><path class="cls-13" d="M238,155c-.69,9.58,5.58,17.94,13.76,18.47s15.5-6.8,16.2-16.38-5.57-17.94-13.76-18.46S238.69,145.43,238,155Z"/><path class="cls-13" d="M255.93,179.92a20.41,20.41,0,0,1-15.85-7.84,30.38,30.38,0,0,1-.17-37.62c4.18-5.05,9.93-8,15.85-8h0c12.37,0,22.47,11.84,22.47,26.65a29.31,29.31,0,0,1-6.45,18.81,20.29,20.29,0,0,1-15.85,8Zm0-50.51h0a17.55,17.55,0,0,0-13.75,7,26.22,26.22,0,0,0-5.75,17.07,25.93,25.93,0,0,0,5.92,16.89,17.91,17.91,0,0,0,13.76,6.8h0a17.58,17.58,0,0,0,13.76-7,26.29,26.29,0,0,0,5.75-17.07C275.44,140,266.73,129.41,255.93,129.41Z"/><path class="cls-22" d="M253.84,149.09c.35,2.44,3,3.83,5.58,3.49,2.78-.53,4.53-2.79,4.18-5.06-.35-2.43-3-3.83-5.58-3.48A4.53,4.53,0,0,0,253.84,149.09Z"/><path class="cls-22" d="M131.4,171c2.09,13.76,13.07,23.51,24.56,21.77s19.16-14.28,17.07-28S160,141.25,148.47,143,129.31,157.28,131.4,171Z"/><path class="cls-13" d="M168.85,166.34c2.09,9.4-2.61,18.46-10.8,20.37-8,1.74-16.37-4.35-18.46-13.76s2.61-18.46,10.8-20.37C158.57,150.83,166.76,156.93,168.85,166.34Z"/><path class="cls-13" d="M153.35,194.55c-11.15,0-21.25-9.75-23.34-23.16h0c-2.27-14.46,5.92-27.87,18.29-29.79,12.19-1.91,24,8.54,26.12,23a28.7,28.7,0,0,1-3.66,19.51,21.25,21.25,0,0,1-14.63,10.28C155.26,194.38,154.22,194.55,153.35,194.55Zm-2.27-50.33a11.69,11.69,0,0,0-2.43.17C138,146,130.88,158,132.8,170.86h0c1.91,13.07,12.19,22.3,23,20.73,5.22-.7,9.58-4,12.54-8.88a26.48,26.48,0,0,0,3.31-17.6C169.89,152.92,160.84,144.22,151.08,144.22Z"/><path class="cls-22" d="M163.45,161.63c0,2.44-2.26,4.36-5,4.18a4.67,4.67,0,0,1-4.88-4.35c0-2.44,2.27-4.36,5-4.18A4.67,4.67,0,0,1,163.45,161.63Z"/><path class="cls-22" d="M268.82,234.09l3.66-.7,1-.52h0c36.75-18.12,61-48.25,54.51-87.78-3.83-23.17-17.42-45.29-36.58-62.7-21.59,5-36.92,8.53-36.92,8.53s41.1,12.19,48.94,60.26C311.32,199.08,268.82,234.09,268.82,234.09Z"/><path class="cls-22" d="M190.43,177.91s-23.84-76.54-62.86-63.83c0,0,1.57-20.9,2.79-20.9,1,0,68.79,4.88,68.79,4.88l17.25,71.76Z"/><path class="cls-21" d="M84.38,184.8c5.39,33.26,29.6,53.47,61.3,62.18l.53-.18c-21.43-18.63-36.41-43.19-39.37-77.33S130,112.52,130,112.52l-29.78-.87C86.81,135,80.54,161.11,84.38,184.8Z"/><path class="cls-14" d="M306.79,109.21c28.57,48.77,11.67,90-10.8,109.9,24.39-19.51,36.75-45.81,32.22-74C320.55,97.89,272,54.87,219.36,47.73h0S277.71,59.74,306.79,109.21Z"/><path class="cls-19" d="M84.38,184.8c3.65,21.94,11.32,37.44,24.38,47.89l3.13,2.27c-.52-.7-32-33.79-20-90.22,10.8-50.51,65.32-87.09,66.19-87.61C109.8,80.3,76.54,137.25,84.38,184.8Z"/><path class="cls-10" d="M328.22,144.74C320.55,97.54,272,54.52,219.36,47.38a102.22,102.22,0,0,0-25.26-.52c-.17,0-9.51-11.1-7-24.39,0,0-19.69,8.76-15.09,29.07l-.07,0A116.34,116.34,0,0,0,158.4,57c-48.6,23.34-81.86,80.29-74,127.84,3.65,21.94,11.32,37.44,24.38,47.89a34.21,34.21,0,0,0,3.13,2.27c9.76,6.62,37.8,13.58,53.3,15.85-22.12-5.92-52.6-20-62.88-57.3C90.47,151,118.86,104.16,148,109.56a33.06,33.06,0,0,1,7.66,2.61c31.53,16.37,34.66,53,34.66,53l2.79,17.41,13.76,2.79,12.54-7-.52-16.19s-2.27-42.85,18.81-63.4a30.33,30.33,0,0,1,9.4-6.45c25.95-10.45,64.62,24,66.88,66.54,2.62,48.94-51.73,78.72-52.42,79.25,7.14-1.75,21.7-7,37.2-21.24C321.7,195.79,332.74,173,328.22,144.74Z"/><path class="cls-13" d="M165.19,252.31l-.22,0c-15.73-2.3-44-9.35-53.92-16.09a38.41,38.41,0,0,1-3.25-2.35C94.61,223.29,86.69,207.78,82.9,185c-3.84-23.3,1.85-49.57,16-74s35-44,58.82-55.44a115.51,115.51,0,0,1,12.57-5.06,25,25,0,0,1,5.11-20.61c4.67-5.84,11-9,11.71-9a1.5,1.5,0,0,1,1.47,1.78c-2.13,11.08,4.46,20.41,6.12,22.53a103.93,103.93,0,0,1,24.85.61c25.78,3.5,51.38,15.59,72.06,34S326,121.39,329.7,144.5h0c4.39,27.35-5.14,50.7-30,73.46-15.87,14.62-30.53,19.8-37.87,21.59a1.5,1.5,0,0,1-1.25-2.66s.22-.15.54-.33c9-5.31,53.62-34,51.29-77.64-1.46-27.37-18.15-49.84-34-60-10.94-7-21.87-8.84-30.79-5.25a28.77,28.77,0,0,0-8.94,6.15c-20.33,19.83-18.36,61.8-18.34,62.22l.53,16.23a1.5,1.5,0,0,1-.77,1.36l-12.54,7a1.54,1.54,0,0,1-1,.16L192.76,184a1.49,1.49,0,0,1-1.18-1.23l-2.79-17.42a.37.37,0,0,1,0-.11c0-.35-3.46-36-33.86-51.74a31.63,31.63,0,0,0-7.27-2.48c-9.62-1.78-19.73,2.47-28.43,12C106.29,137.11,96,165.07,103.76,193.1c7.84,28.45,28.64,47.37,61.82,56.26a1.5,1.5,0,0,1-.39,2.95ZM185.27,25.19c-4.93,3-15.1,11.25-11.75,26a1.52,1.52,0,0,1-1,1.76,114.56,114.56,0,0,0-13.49,5.35C111,81.38,78.18,138,85.86,184.55c3.66,22,11.23,36.89,23.84,47a32.75,32.75,0,0,0,3,2.19c6.13,4.16,19.67,8.47,32.68,11.63-23.11-10.69-38.06-27.92-44.54-51.43C92.75,164.77,103.54,135.68,117,121c9.43-10.3,20.51-14.88,31.22-12.89a35.32,35.32,0,0,1,8,2.73c31.32,16.27,35.33,52.37,35.51,54.12l2.61,16.34,12.2,2.47,11.26-6.25-.49-15.28c-.1-1.75-2.06-43.74,19.26-64.52a31.53,31.53,0,0,1,9.9-6.77c9.83-4,21.73-2,33.52,5.51,16.53,10.53,33.9,33.9,35.41,62.34,1.92,35.9-26.46,61.9-43,73.89a94.56,94.56,0,0,0,25.23-16.9c24-22,33.25-44.52,29-70.78h0C319.27,99,271,55.91,219.16,48.87a100.28,100.28,0,0,0-24.9-.52,1.69,1.69,0,0,1-1.46-.67C192.71,47.58,184.33,37.79,185.27,25.19Z"/><path class="cls-14" d="M248.79,115.65c-8.36-3.66-13.76-9.58-12-13.41s9.75-4,18.11-.35,13.76,9.58,12,13.41S257.15,119.31,248.79,115.65Z"/><path class="cls-13" d="M259.94,119.79A30.12,30.12,0,0,1,248.19,117h0c-6.39-2.79-11.28-6.93-12.76-10.81a5.85,5.85,0,0,1,0-4.59c2.14-4.7,10.77-5.18,20.08-1.1,6.39,2.79,11.28,6.93,12.76,10.81a5.85,5.85,0,0,1,0,4.59C267.11,118.49,264,119.79,259.94,119.79Zm-16.24-19c-2.91,0-5,.78-5.56,2.1a2.94,2.94,0,0,0,.09,2.28c1.19,3.1,5.57,6.69,11.17,9.14h0c8,3.51,15,3,16.14.4a2.94,2.94,0,0,0-.09-2.28c-1.19-3.1-5.57-6.69-11.16-9.13A27.28,27.28,0,0,0,243.7,100.76Z"/><path class="cls-14" d="M154.57,126.8c6.44-6.45,9.23-13.94,6.27-16.9s-10.45-.17-16.9,6.27-9.23,13.94-6.27,16.9S148.12,133.24,154.57,126.8Z"/><path class="cls-13" d="M141,135.68a6,6,0,0,1-4.35-1.57c-1.74-1.91-2.09-4.87-.7-8.53a32.52,32.52,0,0,1,7-10.28,29.83,29.83,0,0,1,10.27-7c3.66-1.4,6.8-1,8.54.69,3.66,3.66.87,11.67-6.27,18.81h0C150.56,132.89,145,135.68,141,135.68Zm16.72-25.6a9.32,9.32,0,0,0-3.48.7,26.16,26.16,0,0,0-9.23,6.27,29.77,29.77,0,0,0-6.45,9.23c-1,2.61-1,4.7,0,5.74,2.09,2.09,8.71,0,15-6.27s8.36-12.89,6.27-15A2.93,2.93,0,0,0,157.7,110.08Z"/><path class="cls-6" d="M169.37,198l.18.18c1.56,2.26,17.59,24.56,43.19,20.38,25.43-4.18,33.09-28.22,34.31-32.57a1.7,1.7,0,0,0,.18-.7c-14.81-5-22.12-16.55-42.15-13.41-1.05.17-1.92.35-2.79.52h0C185.39,176.44,182.78,187.41,169.37,198Z"/><path class="cls-13" d="M220.4,191.59l-3.83-4.7a2,2,0,0,1,3-2.62l3.83,4.71a2,2,0,0,1-3,2.61Z"/><path class="cls-13" d="M193.93,196.64a1.86,1.86,0,0,1-1.05-2.61l2.27-5.58a2,2,0,0,1,3.66,1.57l-2.27,5.58A2.08,2.08,0,0,1,193.93,196.64Z"/><path class="cls-8" d="M205.08,172.08s11.49,1.57,19.33,7.84a77.84,77.84,0,0,0,16.72,9.93l5.75-3.66a1.79,1.79,0,0,0,.17-.7C232.25,180.44,225.11,168.77,205.08,172.08Z"/><path class="cls-7" d="M169.37,198l.18.18,6.61,2.09s5.4-3,11.15-13.24a39.3,39.3,0,0,1,14.81-14.45C185.39,176.44,182.78,187.41,169.37,198Z"/><path class="cls-9" d="M206.3,220.5c-23.69,0-38-21.42-38.15-21.59a1.36,1.36,0,0,1,.35-1.75c4.7-3.65,7.84-7.31,11.15-10.8,6.27-7.14,11.84-13.23,25.25-15.32,13.94-2.27,21.77,2.26,30.13,7.14a72.45,72.45,0,0,0,12.72,6.27,1.25,1.25,0,0,1,.87,1.57c0,.34-7.14,29.61-35.53,34.31C210.65,220.33,208.39,220.5,206.3,220.5Zm-35-22.12c3.31,4.53,18.46,22.64,41.1,19,23.51-3.83,31.53-25.61,33.09-31a78,78,0,0,1-12-6.09c-7.84-4.53-15.33-8.88-28.22-6.79-12.54,2.09-17.42,7.49-23.69,14.45A111.22,111.22,0,0,1,171.29,198.38Z"/><path class="cls-9" d="M196.89,203.43a98.73,98.73,0,0,1-27.87-4c-.69-.18-.47-.56-.12-1.43.17-.7,1.52-1.15,2.39-.8,46.81,12.8,73.85-11.84,74.19-12a1.18,1.18,0,0,1,1.75.14c.52.52-.16,1.83-.68,2.35C246,187.84,229.11,203.43,196.89,203.43Z"/><path class="cls-23" d="M228.05,294.3a2.15,2.15,0,0,0,3.31.5c2.12-2,4.92-5.49,4.37-9.68a12.07,12.07,0,0,0-3.48-6.79c-1.4-1.57-2.09-2.44-1.92-4,.35-3.83,4.53-7,4.7-7a2.24,2.24,0,1,0-2.61-3.65c-.17.17-5.92,4.18-6.44,10.1-.35,3.66,1.56,5.75,3.13,7.49,1.22,1.39,2.27,2.61,2.44,4.35.34,2.48-1.65,4.66-3.1,5.9a2.12,2.12,0,0,0-.43,2.7Z"/><path class="cls-24" d="M229.92,296.87a3,3,0,0,1-.52,0,3.64,3.64,0,0,1-2.64-1.77l0,0a3.64,3.64,0,0,1,.73-4.63c1.08-.92,2.84-2.73,2.59-4.56-.13-1.28-.87-2.19-2.08-3.56-1.67-1.86-3.9-4.34-3.5-8.62.47-5.31,4.52-9.2,6.88-11l.08-.06.15-.11a3.75,3.75,0,0,1,4.28,6.15l-.19.11c-.59.4-3.6,3-3.86,5.75-.09.87.12,1.27,1.55,2.87a13.4,13.4,0,0,1,3.85,7.63c.62,4.69-2.29,8.54-4.84,10.93A3.59,3.59,0,0,1,229.92,296.87Zm-.57-3.33a.63.63,0,0,0,.47.32.58.58,0,0,0,.51-.16c2-1.91,4.37-4.92,3.91-8.38a10.66,10.66,0,0,0-3.11-6c-1.37-1.53-2.55-2.86-2.29-5.16.31-3.46,3.55-7,5.38-8l0,0a.6.6,0,0,0,.27-.42,1,1,0,0,0-.16-.64.72.72,0,0,0-1-.13l-.09.07c-1.6,1.24-5.36,4.6-5.74,8.94-.28,3,1.24,4.67,2.71,6.3s2.64,3,2.86,5.26c.42,3-1.74,5.59-3.62,7.19a.63.63,0,0,0-.11.8l0,.06ZM235,268.85h0Zm0,0Zm0,0Zm0,0h0Zm0,0Z"/><path class="cls-23" d="M208.9,289.7a2.14,2.14,0,0,0,3.31.5c2.13-2,4.92-5.49,4.37-9.68a12.07,12.07,0,0,0-3.48-6.79c-1.4-1.57-2.09-2.44-1.92-4,.35-3.84,4.53-7,4.7-7a2.25,2.25,0,1,0-2.61-3.66c-.17.18-5.92,4.18-6.44,10.1-.35,3.66,1.57,5.75,3.13,7.49,1.22,1.4,2.27,2.62,2.44,4.36.34,2.47-1.65,4.66-3.1,5.89a2.15,2.15,0,0,0-.43,2.71Z"/><path class="cls-24" d="M210.77,292.27a3,3,0,0,1-.52,0,3.61,3.61,0,0,1-2.64-1.77h0l1.3-.75-1.31.73a3.63,3.63,0,0,1,.74-4.63c1.07-.91,2.83-2.72,2.58-4.55-.12-1.28-.87-2.19-2.08-3.57-1.66-1.85-3.9-4.34-3.5-8.62.47-5.31,4.52-9.19,6.89-11l.07-.06.15-.12a3.75,3.75,0,0,1,4.28,6.16l-.19.1c-.6.41-3.6,2.93-3.85,5.75-.1.87.12,1.27,1.54,2.88a13.31,13.31,0,0,1,3.85,7.62c.62,4.7-2.29,8.54-4.83,10.94A3.63,3.63,0,0,1,210.77,292.27Zm3.38-31.95-.09.07c-1.6,1.24-5.36,4.6-5.74,8.94-.28,3,1.24,4.67,2.71,6.31s2.64,3,2.86,5.26c.42,3-1.74,5.58-3.62,7.18a.65.65,0,0,0-.11.81l0,.06a.7.7,0,0,0,.47.32.61.61,0,0,0,.51-.16c2-1.91,4.37-4.92,3.91-8.39a10.6,10.6,0,0,0-3.11-6c-1.37-1.54-2.55-2.86-2.29-5.17.31-3.45,3.55-7,5.38-8l0,0a.74.74,0,0,0,.11-1.05.6.6,0,0,0-.42-.27A.91.91,0,0,0,214.15,260.32Zm1.74,3.94h0Zm0,0Zm0,0Zm0,0Z"/><path class="cls-13" d="M187.84,253.86a142.11,142.11,0,0,1-22.92-1.58,1.5,1.5,0,0,1,.54-2.95c.44.08,45,7.91,95.48-12.63a1.5,1.5,0,1,1,1.13,2.78A198.75,198.75,0,0,1,187.84,253.86Z"/></g></g></g></svg>